# 3ds Max Wavefront OBJ Exporter v0.97b - (c)2007 guruware
# File Created: 14.12.2022 11:17:51

mtllib ???\butterfly.mtl

#
# object Plane001
#

v  -0.8000 0.0000 0.2500
v  -0.8000 0.0000 0.5000
v  -0.6000 0.0000 0.5000
v  -0.6000 0.0000 0.2500
v  -0.4000 0.0000 0.5000
v  -0.4000 0.0000 0.2500
v  -0.2000 0.0000 0.5000
v  -0.2000 0.0000 0.2500
v  0.0000 0.0000 0.5000
v  0.0000 0.0000 0.2500
v  -0.8000 0.0000 -0.0000
v  -0.6000 0.0000 -0.0000
v  -0.4000 0.0000 -0.0000
v  -0.2000 0.0000 -0.0000
v  0.0000 0.0000 -0.0000
v  -0.8000 0.0000 -0.2500
v  -0.6000 0.0000 -0.2500
v  -0.4000 0.0000 -0.2500
v  -0.2000 0.0000 -0.2500
v  0.0000 0.0000 -0.2500
v  -0.8000 0.0000 -0.5000
v  -0.6000 0.0000 -0.5000
v  -0.4000 0.0000 -0.5000
v  -0.2000 0.0000 -0.5000
v  0.0000 0.0000 -0.5000
v  0.8000 0.0000 0.2500
v  0.6000 0.0000 0.2500
v  0.6000 0.0000 0.5000
v  0.8000 0.0000 0.5000
v  0.4000 0.0000 0.2500
v  0.4000 0.0000 0.5000
v  0.2000 0.0000 0.2500
v  0.2000 0.0000 0.5000
v  0.8000 0.0000 -0.0000
v  0.6000 0.0000 -0.0000
v  0.4000 0.0000 -0.0000
v  0.2000 0.0000 -0.0000
v  0.8000 0.0000 -0.2500
v  0.6000 0.0000 -0.2500
v  0.4000 0.0000 -0.2500
v  0.2000 0.0000 -0.2500
v  0.8000 0.0000 -0.5000
v  0.6000 0.0000 -0.5000
v  0.4000 0.0000 -0.5000
v  0.2000 0.0000 -0.5000
# 45 vertices

vn 0.0000 1.0000 -0.0000
# 1 vertex normals

vt 0.0000 0.2500 0.0000
vt 0.0000 0.0000 0.0000
vt 0.2500 0.0000 0.0000
vt 0.2500 0.2500 0.0000
vt 0.5000 0.0000 0.0000
vt 0.5000 0.2500 0.0000
vt 0.7500 0.0000 0.0000
vt 0.7500 0.2500 0.0000
vt 1.0000 0.0000 0.0000
vt 1.0000 0.2500 0.0000
vt 0.0000 0.5000 0.0000
vt 0.2500 0.5000 0.0000
vt 0.5000 0.5000 0.0000
vt 0.7500 0.5000 0.0000
vt 1.0000 0.5000 0.0000
vt 0.0000 0.7500 0.0000
vt 0.2500 0.7500 0.0000
vt 0.5000 0.7500 0.0000
vt 0.7500 0.7500 0.0000
vt 1.0000 0.7500 0.0000
vt 0.0000 1.0000 0.0000
vt 0.2500 1.0000 0.0000
vt 0.5000 1.0000 0.0000
vt 0.7500 1.0000 0.0000
vt 1.0000 1.0000 0.0000
# 25 texture coords

o Plane001
g Plane001
usemtl wire_154215229
s 1
f 1/1/1 2/2/1 3/3/1 4/4/1 
f 4/4/1 3/3/1 5/5/1 6/6/1 
f 6/6/1 5/5/1 7/7/1 8/8/1 
f 8/8/1 7/7/1 9/9/1 10/10/1 
f 11/11/1 1/1/1 4/4/1 12/12/1 
f 12/12/1 4/4/1 6/6/1 13/13/1 
f 13/13/1 6/6/1 8/8/1 14/14/1 
f 14/14/1 8/8/1 10/10/1 15/15/1 
f 16/16/1 11/11/1 12/12/1 17/17/1 
f 17/17/1 12/12/1 13/13/1 18/18/1 
f 18/18/1 13/13/1 14/14/1 19/19/1 
f 19/19/1 14/14/1 15/15/1 20/20/1 
f 21/21/1 16/16/1 17/17/1 22/22/1 
f 22/22/1 17/17/1 18/18/1 23/23/1 
f 23/23/1 18/18/1 19/19/1 24/24/1 
f 24/24/1 19/19/1 20/20/1 25/25/1 
f 26/1/1 27/4/1 28/3/1 29/2/1 
f 27/4/1 30/6/1 31/5/1 28/3/1 
f 30/6/1 32/8/1 33/7/1 31/5/1 
f 32/8/1 10/10/1 9/9/1 33/7/1 
f 34/11/1 35/12/1 27/4/1 26/1/1 
f 35/12/1 36/13/1 30/6/1 27/4/1 
f 36/13/1 37/14/1 32/8/1 30/6/1 
f 37/14/1 15/15/1 10/10/1 32/8/1 
f 38/16/1 39/17/1 35/12/1 34/11/1 
f 39/17/1 40/18/1 36/13/1 35/12/1 
f 40/18/1 41/19/1 37/14/1 36/13/1 
f 41/19/1 20/20/1 15/15/1 37/14/1 
f 42/21/1 43/22/1 39/17/1 38/16/1 
f 43/22/1 44/23/1 40/18/1 39/17/1 
f 44/23/1 45/24/1 41/19/1 40/18/1 
f 45/24/1 25/25/1 20/20/1 41/19/1 
# 32 polygons

